<svg clip-rule="evenodd" fill-rule="evenodd" stroke-linejoin="round" stroke-miterlimit="2" viewBox="0 0 641 176" xmlns="http://www.w3.org/2000/svg"><g fill="#28003a"><path d="m0 47.765-13.248-47.765h7.581l9.305 36.99h.443l9.679-36.99h7.51l9.678 37.013h.444l9.282-37.013h7.603l-13.271 47.765h-7.252l-10.052-35.777h-.374l-10.052 35.777z" fill-rule="nonzero" transform="translate(215.643 71.615)"/><path d="m0 25.304c2.176 0 3.98-.575 5.411-1.727 1.43-1.149 2.491-2.681 3.183-4.594.692-1.912 1.037-4.019 1.037-6.32 0-2.285-.345-4.387-1.037-6.308s-1.753-3.464-3.183-4.63c-1.431-1.166-3.235-1.75-5.411-1.75-2.192 0-4.008.584-5.446 1.75s-2.503 2.709-3.195 4.63-1.038 4.023-1.038 6.308c0 2.301.346 4.408 1.038 6.32.692 1.913 1.757 3.445 3.195 4.594 1.438 1.152 3.254 1.727 5.446 1.727m-.023 5.854c-3.359 0-6.289-.77-8.793-2.31-2.504-1.538-4.447-3.691-5.83-6.46-1.385-2.767-2.076-6.001-2.076-9.702 0-3.716.691-6.965 2.076-9.748 1.383-2.782 3.326-4.945 5.83-6.485 2.504-1.539 5.434-2.307 8.793-2.307 3.358 0 6.288.768 8.792 2.307 2.503 1.54 4.446 3.703 5.831 6.485 1.383 2.783 2.075 6.032 2.075 9.748 0 3.701-.692 6.935-2.075 9.702-1.385 2.769-3.328 4.922-5.831 6.46-2.504 1.54-5.434 2.31-8.792 2.31" fill-rule="nonzero" transform="translate(281.551 88.945)"/><path d="m0-6.252v21.271h-6.974v-35.823h6.695v5.829h.443c.823-1.896 2.117-3.419 3.882-4.57s3.992-1.726 6.683-1.726c2.44 0 4.579.509 6.413 1.528 1.835 1.018 3.257 2.53 4.268 4.536s1.516 4.485 1.516 7.439v22.787h-6.974v-21.947c0-2.595-.676-4.629-2.029-6.098s-3.21-2.205-5.573-2.205c-1.618 0-3.052.35-4.304 1.05s-2.239 1.723-2.962 3.067c-.723 1.345-1.084 2.966-1.084 4.862" fill-rule="nonzero" transform="translate(312.966 104.362)"/><path d="m447.167 267.79h6.974v35.822h-6.974zm3.522-5.527c-1.212 0-2.251-.409-3.114-1.225-.862-.817-1.294-1.792-1.294-2.928 0-1.15.432-2.133 1.294-2.95.863-.817 1.902-1.225 3.114-1.225 1.213 0 2.25.408 3.114 1.225.863.817 1.294 1.792 1.294 2.927 0 1.152-.431 2.134-1.294 2.951-.864.816-1.901 1.225-3.114 1.225" fill-rule="nonzero" transform="translate(-101.947 -184.232)"/><path d="m0-6.252v21.271h-6.973v-35.823h6.694v5.829h.443c.823-1.896 2.118-3.419 3.883-4.57s3.992-1.726 6.682-1.726c2.441 0 4.579.509 6.414 1.528 1.834 1.018 3.256 2.53 4.267 4.536s1.517 4.485 1.517 7.439v22.787h-6.974v-21.947c0-2.595-.676-4.629-2.029-6.098s-3.21-2.205-5.573-2.205c-1.619 0-3.052.35-4.304 1.05s-2.239 1.723-2.962 3.067c-.723 1.345-1.085 2.966-1.085 4.862" fill-rule="nonzero" transform="translate(368.541 104.362)"/><path d="m0 9.539c2.006 0 3.704-.471 5.097-1.412 1.39-.94 2.448-2.292 3.171-4.057.723-1.764 1.085-3.883 1.085-6.355 0-2.41-.359-4.532-1.073-6.366-.716-1.835-1.765-3.27-3.148-4.305-1.385-1.033-3.095-1.551-5.132-1.551-2.099 0-3.848.54-5.247 1.622-1.399 1.08-2.452 2.546-3.16 4.397-.708 1.849-1.061 3.918-1.061 6.203 0 2.347.357 4.407 1.072 6.179.715 1.774 1.777 3.158 3.183 4.153 1.407.995 3.146 1.492 5.213 1.492m.07 20.43c-2.844 0-5.291-.372-7.335-1.12-2.045-.746-3.712-1.73-5.003-2.95-1.29-1.22-2.253-2.547-2.891-3.976l5.993-2.472c.421.652.983 1.36 1.691 2.123.708.761 1.672 1.413 2.893 1.959 1.221.543 2.795.815 4.723.815 2.642 0 4.828-.638 6.552-1.913 1.727-1.274 2.59-3.295 2.59-6.063v-7.042h-.444c-.419.761-1.022 1.608-1.808 2.541-.784.934-1.861 1.741-3.229 2.426-1.368.683-3.149 1.026-5.341 1.026-2.83 0-5.375-.665-7.638-1.994-2.262-1.33-4.051-3.296-5.364-5.9-1.314-2.605-1.971-5.812-1.971-9.62 0-3.81.65-7.076 1.948-9.796 1.298-2.721 3.082-4.809 5.352-6.262 2.27-1.455 4.843-2.181 7.72-2.181 2.223 0 4.019.369 5.388 1.108 1.368.738 2.436 1.597 3.206 2.577.77.979 1.365 1.843 1.784 2.589h.513v-5.807h6.834v36.614c0 3.048-.716 5.555-2.145 7.523-1.432 1.966-3.363 3.424-5.797 4.373-2.433.947-5.174 1.422-8.221 1.422" fill-rule="nonzero" transform="translate(415.745 103.521)"/><path d="m0 47.765v-47.765h31.625v8.327h-21.526v11.381h19.426v8.327h-19.426v19.73z" fill-rule="nonzero" transform="translate(440.794 71.615)"/><path d="m580.966 268.605h9.936v35.822h-9.936zm5.015-4.619c-1.478 0-2.745-.489-3.802-1.469-1.058-.979-1.586-2.162-1.586-3.545 0-1.384.528-2.569 1.586-3.557 1.057-.987 2.316-1.48 3.778-1.48 1.493 0 2.765.489 3.814 1.469 1.048.979 1.573 2.161 1.573 3.545s-.525 2.569-1.573 3.557c-1.049.987-2.314 1.48-3.79 1.48" fill-rule="nonzero" transform="translate(-101.947 -185.047)"/><path d="m0-5.131v20.71h-9.937v-35.822h9.47v6.319h.42c.792-2.084 2.122-3.735 3.987-4.956 1.867-1.221 4.129-1.83 6.788-1.83 2.487 0 4.656.545 6.506 1.632 1.852 1.089 3.289 2.639 4.316 4.652 1.026 2.015 1.539 4.412 1.539 7.195v22.81h-9.937v-21.036c.016-2.194-.544-3.907-1.677-5.144-1.136-1.236-2.699-1.854-4.689-1.854-1.337 0-2.515.288-3.533.863-1.019.576-1.812 1.411-2.378 2.508-.569 1.096-.859 2.413-.875 3.953" fill-rule="nonzero" transform="translate(506.819 103.801)"/><path d="m0 32.535c1.602 0 2.958-.439 4.07-1.317 1.112-.879 1.967-2.112 2.566-3.698.598-1.586.897-3.443.897-5.574 0-2.129-.295-3.979-.886-5.55s-1.446-2.783-2.566-3.639c-1.118-.855-2.479-1.282-4.081-1.282-1.632 0-3.009.443-4.127 1.329-1.12.886-1.968 2.115-2.543 3.686-.576 1.57-.862 3.39-.862 5.456 0 2.084.291 3.923.875 5.517.582 1.593 1.43 2.838 2.542 3.73 1.111.895 2.483 1.342 4.115 1.342m-3.147 7.906c-2.722 0-5.183-.704-7.382-2.111-2.2-1.406-3.943-3.482-5.224-6.227-1.283-2.744-1.925-6.114-1.925-10.11 0-4.104.66-7.52 1.983-10.25 1.321-2.729 3.082-4.772 5.282-6.134 2.2-1.36 4.613-2.04 7.241-2.04 2.007 0 3.682.338 5.026 1.014 1.345.677 2.434 1.516 3.266 2.519.831 1.002 1.465 1.986 1.9 2.951h.303v-17.959h9.912v47.764h-9.796v-5.737h-.419c-.466.995-1.123 1.979-1.97 2.95-.848.973-1.945 1.776-3.288 2.414-1.345.637-2.983.956-4.909.956" fill-rule="nonzero" transform="translate(554.069 79.522)"/><path d="m0 36.989c-3.685 0-6.854-.75-9.504-2.251-2.651-1.5-4.692-3.631-6.122-6.391-1.432-2.758-2.146-6.028-2.146-9.807 0-3.685.714-6.918 2.146-9.701 1.43-2.783 3.448-4.952 6.052-6.507s5.664-2.332 9.177-2.332c2.363 0 4.567.377 6.612 1.13 2.044.755 3.833 1.885 5.364 3.393 1.531 1.509 2.725 3.402 3.579 5.68.857 2.278 1.283 4.94 1.283 7.988v2.728h-30.248v-6.158h20.896c0-1.429-.311-2.696-.933-3.8s-1.479-1.97-2.577-2.601c-1.096-.63-2.367-.944-3.812-.944-1.508 0-2.842.345-4 1.037-1.159.692-2.065 1.618-2.718 2.776s-.986 2.446-1.002 3.861v5.853c0 1.772.33 3.304.99 4.594.661 1.29 1.598 2.286 2.812 2.986 1.212.698 2.649 1.049 4.314 1.049 1.104 0 2.114-.156 3.032-.467.917-.31 1.702-.776 2.355-1.399.653-.622 1.151-1.383 1.492-2.285l9.189.605c-.465 2.209-1.418 4.133-2.856 5.773s-3.289 2.917-5.552 3.825c-2.261.91-4.869 1.365-7.823 1.365" fill-rule="nonzero" transform="translate(595.769 83.091)"/><path d="m0 36.336v-35.822h9.634v6.25h.372c.654-2.225 1.75-3.907 3.289-5.05 1.54-1.143 3.311-1.714 5.317-1.714.498 0 1.034.031 1.61.093.575.061 1.08.148 1.515.256v8.816c-.466-.14-1.111-.264-1.935-.373-.825-.108-1.579-.162-2.263-.162-1.461 0-2.764.314-3.906.943-1.143.63-2.045 1.505-2.705 2.624-.661 1.119-.991 2.41-.991 3.872v20.267z" fill-rule="nonzero" transform="translate(618.693 83.044)"/></g><path d="m277.103 210.159c0-6.627-5.373-12-12-12h-151.156c-6.627 0-12 5.373-12 12v151.156c0 6.627 5.373 12 12 12h151.156c6.627 0 12-5.373 12-12z" fill="#e46948" transform="matrix(-1 0 0 1 277.103 -198.159)"/><path d="m0 113.988c-1.767-1.771-1.771-4.655-.008-6.431l3.169-3.192c.862-.867 2.011-1.346 3.234-1.346 1.217 0 2.362.475 3.223 1.335l11.443 11.444 16.946-16.927v-1.566h-.049c-.01-14.513-.02-29.026.049-43.54.023-4.717-1.556-8.548-4.879-11.806-4.02-3.941-7.974-7.95-11.956-11.93-10.259-10.252-20.518-20.506-30.779-30.756-1.838-1.836-1.904-1.831-3.785.042-1.821 1.814-3.638 3.632-5.454 5.451-1.987 1.989-1.988 1.993.03 4.01 13.202 13.194 26.39 26.403 39.621 39.568 2.662 2.65 3.959 5.659 3.929 9.485-.111 14.254-.045 28.509-.045 42.763v2.692c-2.818 0-5.583.042-8.295.042-1.923.121-2.35-.583-2.34-2.388.069-12.846.027-25.694.042-38.541.005-3.674-1.251-6.868-3.808-9.438-12.39-12.45-24.84-24.839-37.239-37.278-1.093-1.096-1.888-1.001-2.9.057-1.945 2.033-3.971 3.99-5.96 5.982-1.887 1.889-1.887 1.893-.034 3.746 10.995 10.988 21.965 22.001 33.005 32.944 2.444 2.421 3.868 5.255 3.894 8.613.09 11.562.033 23.125.05 34.688.002 1.163-.444 1.591-1.644 1.591-2.531 0-4.743.018-7.527.018-1.735 0-2.147-.519-2.137-2.169.065-10.767.089-21.535-.036-32.301-.016-1.389-.595-3.133-1.543-4.095-10.645-10.817-21.421-21.505-32.136-32.254-1.027-1.031-1.795-.949-2.757.052-1.994 2.072-4.06 4.076-6.092 6.112-1.788 1.793-1.79 1.872-.037 3.625 9.305 9.302 18.599 18.616 27.938 27.885 1.034 1.027 1.47 2.068 1.46 3.533-.061 9.115-.075 18.231.008 27.345.016 1.741-.42 2.283-2.226 2.272-13.118 0-26.097.001-39.32-.005-.655 0-1.779.035-2.528 0 0-.791.001-.961.001-1.311-.007-9.667-.033-19.333.042-28.999.006-.787.548-1.733 1.127-2.328 3.843-3.944 7.722-7.856 11.682-11.682 1.243-1.2 1.175-1.989-.041-3.114-2.065-1.911-3.998-3.962-5.995-5.947-1.635-1.624-1.756-1.63-3.36-.03-4.94 4.926-9.849 9.883-14.82 14.778-1.355 1.334-1.956 2.799-1.949 4.722.051 14.866.027 29.732.029 44.598 0 2.539.006 2.544 2.542 2.544h80.773z" fill="#fff" fill-rule="nonzero" transform="translate(108.968 30.35)"/><path d="m0 6.07 17.835 17.87c.64.641 1.678.642 2.318.002l36.356-36.32c.643-.644.64-1.688-.008-2.325l-3.22-3.177c-.641-.632-1.672-.629-2.308.007l-30.821 30.786c-.64.638-1.677.638-2.316-.001l-12.349-12.349c-.641-.641-1.682-.639-2.321.004l-3.169 3.191c-.636.641-.634 1.674.003 2.312" fill="#fff" fill-rule="nonzero" transform="translate(111.034 136.206)"/></svg>